# xmcd
#
# Track frame offsets:
#	150
#	22231
#	44230
#	69036
#	93028
#	116134
#	146983
#	167580
#	198983
#	230674
#	247752
#	278062
#
# Disc length: 4053 seconds
#
# Revision: 1
# Processed by: cddbd v1.5.1PL2 Copyright (c) Steve Scherf et al.
# Submitted via: EasyCDDAExtractor 8.2.2.1
#
DISCID=a90fd30c
DTITLE=Dubdriver - Floating Beats
DYEAR=2005
DGENRE=
TTITLE0=Shine (Dubdriver Dinkel Mix)
TTITLE1=Moonmadness
TTITLE2=Dotted Diary
TTITLE3=Kaleido-Scope
TTITLE4=Desert Land
TTITLE5=Let there be Light
TTITLE6=Reverie
TTITLE7=Song of the Siren
TTITLE8=Surya Mangalam
TTITLE9=Desert Land (Eternal Calling Mix)
TTITLE10=Feel the Flow
TTITLE11=Varanasi (She doesn't see)
EXTD=
EXTT0=
EXTT1=
EXTT2=
EXTT3=
EXTT4=
EXTT5=
EXTT6=
EXTT7=
EXTT8=
EXTT9=
EXTT10=
EXTT11=
PLAYORDER=
